HIERARCHY
ROOT mixamorig:Hips
{
	OFFSET -0.000008 104.274872 1.554316
	CHANNELS 6 Xposition Yposition Zposition Xrotation Yrotation Zrotation
	JOINT mixamorig:Spine
	{
		OFFSET -0.000005 10.181595 0.131519
		CHANNELS 6 Xposition Yposition Zposition Xrotation Yrotation Zrotation
		JOINT mixamorig:Spine1
		{
			OFFSET -0.000000 9.893959 -1.470707
			CHANNELS 6 Xposition Yposition Zposition Xrotation Yrotation Zrotation
			JOINT mixamorig:Spine2
			{
				OFFSET -0.000000 9.220757 -1.370641
				CHANNELS 6 Xposition Yposition Zposition Xrotation Yrotation Zrotation
				JOINT mixamorig:Neck
				{
					OFFSET 0.000001 16.740417 -2.049036
					CHANNELS 6 Xposition Yposition Zposition Xrotation Yrotation Zrotation
					JOINT mixamorig:Head
					{
						OFFSET 0.000000 9.617874 1.685006
						CHANNELS 6 Xposition Yposition Zposition Xrotation Yrotation Zrotation
						JOINT mixamorig:HeadTop_End
						{
							OFFSET 0.000002 22.037354 7.501101
							CHANNELS 6 Xposition Yposition Zposition Xrotation Yrotation Zrotation
							End Site
							{
								OFFSET 0.000168 2310.654297 -282.823242
							}
						}
					}
				}
				JOINT mixamorig:RightShoulder
				{
					OFFSET -4.569970 11.014908 -2.160885
					CHANNELS 6 Xposition Yposition Zposition Xrotation Yrotation Zrotation
					JOINT mixamorig:RightArm
					{
						OFFSET -10.592851 -0.524811 -2.232101
						CHANNELS 6 Xposition Yposition Zposition Xrotation Yrotation Zrotation
						JOINT mixamorig:RightForeArm
						{
							OFFSET -27.841511 0.000031 -0.000004
							CHANNELS 6 Xposition Yposition Zposition Xrotation Yrotation Zrotation
							JOINT mixamorig:RightHand
							{
								OFFSET -28.328831 -0.000015 0.000015
								CHANNELS 6 Xposition Yposition Zposition Xrotation Yrotation Zrotation
								JOINT mixamorig:RightHandThumb1
								{
									OFFSET -2.464806 -1.573990 2.681852
									CHANNELS 6 Xposition Yposition Zposition Xrotation Yrotation Zrotation
									JOINT mixamorig:RightHandThumb2
									{
										OFFSET -3.215179 -1.872803 1.924282
										CHANNELS 6 Xposition Yposition Zposition Xrotation Yrotation Zrotation
										JOINT mixamorig:RightHandThumb3
										{
											OFFSET -2.654831 -1.527969 1.512609
											CHANNELS 6 Xposition Yposition Zposition Xrotation Yrotation Zrotation
											JOINT mixamorig:RightHandThumb4
											{
												OFFSET -2.018814 -1.152008 1.108052
												CHANNELS 6 Xposition Yposition Zposition Xrotation Yrotation Zrotation
												End Site
												{
													OFFSET -188.809540 -114.533607 132.431396
												}
											}
										}
									}
								}
								JOINT mixamorig:RightHandIndex1
								{
									OFFSET -9.108284 -0.517868 2.259835
									CHANNELS 6 Xposition Yposition Zposition Xrotation Yrotation Zrotation
									JOINT mixamorig:RightHandIndex2
									{
										OFFSET -3.699989 0.000000 0.001215
										CHANNELS 6 Xposition Yposition Zposition Xrotation Yrotation Zrotation
										JOINT mixamorig:RightHandIndex3
										{
											OFFSET -2.850006 0.000031 -0.000522
											CHANNELS 6 Xposition Yposition Zposition Xrotation Yrotation Zrotation
											JOINT mixamorig:RightHandIndex4
											{
												OFFSET -2.772186 -0.000015 -0.000020
												CHANNELS 6 Xposition Yposition Zposition Xrotation Yrotation Zrotation
												End Site
												{
													OFFSET -277.218445 0.000000 -0.050231
												}
											}
										}
									}
								}
								JOINT mixamorig:RightHandMiddle1
								{
									OFFSET -9.532516 -0.000031 -0.000023
									CHANNELS 6 Xposition Yposition Zposition Xrotation Yrotation Zrotation
									JOINT mixamorig:RightHandMiddle2
									{
										OFFSET -3.700005 -0.000015 0.003713
										CHANNELS 6 Xposition Yposition Zposition Xrotation Yrotation Zrotation
										JOINT mixamorig:RightHandMiddle3
										{
											OFFSET -2.949974 0.000015 -0.002054
											CHANNELS 6 Xposition Yposition Zposition Xrotation Yrotation Zrotation
											JOINT mixamorig:RightHandMiddle4
											{
												OFFSET -2.946640 0.000000 -0.000156
												CHANNELS 6 Xposition Yposition Zposition Xrotation Yrotation Zrotation
												End Site
												{
													OFFSET -294.664337 0.000000 -0.113670
												}
											}
										}
									}
								}
								JOINT mixamorig:RightHandRing1
								{
									OFFSET -9.103600 -0.043076 -1.865134
									CHANNELS 6 Xposition Yposition Zposition Xrotation Yrotation Zrotation
									JOINT mixamorig:RightHandRing2
									{
										OFFSET -3.379288 0.000000 -0.001055
										CHANNELS 6 Xposition Yposition Zposition Xrotation Yrotation Zrotation
										JOINT mixamorig:RightHandRing3
										{
											OFFSET -2.889687 -0.000015 0.000379
											CHANNELS 6 Xposition Yposition Zposition Xrotation Yrotation Zrotation
											JOINT mixamorig:RightHandRing4
											{
												OFFSET -2.638809 -0.000015 0.000941
												CHANNELS 6 Xposition Yposition Zposition Xrotation Yrotation Zrotation
												End Site
												{
													OFFSET -263.880371 0.000000 0.516020
												}
											}
										}
									}
								}
								JOINT mixamorig:RightHandPinky1
								{
									OFFSET -8.076683 -0.486710 -3.806280
									CHANNELS 6 Xposition Yposition Zposition Xrotation Yrotation Zrotation
									JOINT mixamorig:RightHandPinky2
									{
										OFFSET -3.600014 -0.000015 -0.003747
										CHANNELS 6 Xposition Yposition Zposition Xrotation Yrotation Zrotation
										JOINT mixamorig:RightHandPinky3
										{
											OFFSET -2.099983 0.000000 -0.005739
											CHANNELS 6 Xposition Yposition Zposition Xrotation Yrotation Zrotation
											JOINT mixamorig:RightHandPinky4
											{
												OFFSET -2.115768 -0.000031 -0.003680
												CHANNELS 6 Xposition Yposition Zposition Xrotation Yrotation Zrotation
												End Site
												{
													OFFSET -211.577087 0.000000 -0.350686
												}
											}
										}
									}
								}
							}
						}
					}
				}
				JOINT mixamorig:LeftShoulder
				{
					OFFSET 4.570447 11.014725 -2.160855
					CHANNELS 6 Xposition Yposition Zposition Xrotation Yrotation Zrotation
					JOINT mixamorig:LeftArm
					{
						OFFSET 10.592371 -0.524597 -2.232119
						CHANNELS 6 Xposition Yposition Zposition Xrotation Yrotation Zrotation
						JOINT mixamorig:LeftForeArm
						{
							OFFSET 27.841532 -0.000031 0.000026
							CHANNELS 6 Xposition Yposition Zposition Xrotation Yrotation Zrotation
							JOINT mixamorig:LeftHand
							{
								OFFSET 28.328846 -0.000061 0.000022
								CHANNELS 6 Xposition Yposition Zposition Xrotation Yrotation Zrotation
								JOINT mixamorig:LeftHandThumb1
								{
									OFFSET 2.466141 -1.576172 2.681732
									CHANNELS 6 Xposition Yposition Zposition Xrotation Yrotation Zrotation
									JOINT mixamorig:LeftHandThumb2
									{
										OFFSET 3.217812 -1.872070 1.916482
										CHANNELS 6 Xposition Yposition Zposition Xrotation Yrotation Zrotation
										JOINT mixamorig:LeftHandThumb3
										{
											OFFSET 2.656029 -1.528778 1.514513
											CHANNELS 6 Xposition Yposition Zposition Xrotation Yrotation Zrotation
											JOINT mixamorig:LeftHandThumb4
											{
												OFFSET 2.020889 -1.154053 1.115139
												CHANNELS 6 Xposition Yposition Zposition Xrotation Yrotation Zrotation
												End Site
												{
													OFFSET 190.885437 -115.081749 130.048782
												}
											}
										}
									}
								}
								JOINT mixamorig:LeftHandIndex1
								{
									OFFSET 9.109314 -0.518021 2.259871
									CHANNELS 6 Xposition Yposition Zposition Xrotation Yrotation Zrotation
									JOINT mixamorig:LeftHandIndex2
									{
										OFFSET 3.699989 0.000000 -0.000322
										CHANNELS 6 Xposition Yposition Zposition Xrotation Yrotation Zrotation
										JOINT mixamorig:LeftHandIndex3
										{
											OFFSET 2.850006 0.000000 0.000352
											CHANNELS 6 Xposition Yposition Zposition Xrotation Yrotation Zrotation
											JOINT mixamorig:LeftHandIndex4
											{
												OFFSET 2.774864 -0.000031 -0.000027
												CHANNELS 6 Xposition Yposition Zposition Xrotation Yrotation Zrotation
												End Site
												{
													OFFSET 277.486267 0.000000 -0.009857
												}
											}
										}
									}
								}
								JOINT mixamorig:LeftHandMiddle1
								{
									OFFSET 9.533394 0.000061 0.000044
									CHANNELS 6 Xposition Yposition Zposition Xrotation Yrotation Zrotation
									JOINT mixamorig:LeftHandMiddle2
									{
										OFFSET 3.699989 -0.000015 -0.000231
										CHANNELS 6 Xposition Yposition Zposition Xrotation Yrotation Zrotation
										JOINT mixamorig:LeftHandMiddle3
										{
											OFFSET 2.949997 -0.000015 -0.000059
											CHANNELS 6 Xposition Yposition Zposition Xrotation Yrotation Zrotation
											JOINT mixamorig:LeftHandMiddle4
											{
												OFFSET 2.952896 0.000031 0.000063
												CHANNELS 6 Xposition Yposition Zposition Xrotation Yrotation Zrotation
												End Site
												{
													OFFSET 295.289337 0.000000 0.022810
												}
											}
										}
									}
								}
								JOINT mixamorig:LeftHandRing1
								{
									OFFSET 9.104523 -0.042999 -1.865074
									CHANNELS 6 Xposition Yposition Zposition Xrotation Yrotation Zrotation
									JOINT mixamorig:LeftHandRing2
									{
										OFFSET 3.150009 -0.000031 0.000043
										CHANNELS 6 Xposition Yposition Zposition Xrotation Yrotation Zrotation
										JOINT mixamorig:LeftHandRing3
										{
											OFFSET 2.949982 -0.000015 0.000040
											CHANNELS 6 Xposition Yposition Zposition Xrotation Yrotation Zrotation
											JOINT mixamorig:LeftHandRing4
											{
												OFFSET 2.644348 0.000000 0.000057
												CHANNELS 6 Xposition Yposition Zposition Xrotation Yrotation Zrotation
												End Site
												{
													OFFSET 264.434631 0.000000 0.012105
												}
											}
										}
									}
								}
								JOINT mixamorig:LeftHandPinky1
								{
									OFFSET 8.077789 -0.486847 -3.806259
									CHANNELS 6 Xposition Yposition Zposition Xrotation Yrotation Zrotation
									JOINT mixamorig:LeftHandPinky2
									{
										OFFSET 3.599953 0.000031 0.014727
										CHANNELS 6 Xposition Yposition Zposition Xrotation Yrotation Zrotation
										JOINT mixamorig:LeftHandPinky3
										{
											OFFSET 2.100021 0.000015 0.007705
											CHANNELS 6 Xposition Yposition Zposition Xrotation Yrotation Zrotation
											JOINT mixamorig:LeftHandPinky4
											{
												OFFSET 2.125504 0.000031 0.007517
												CHANNELS 6 Xposition Yposition Zposition Xrotation Yrotation Zrotation
												End Site
												{
													OFFSET 212.550781 0.000000 0.625752
												}
											}
										}
									}
								}
							}
						}
					}
				}
			}
		}
	}
	JOINT mixamorig:RightUpLeg
	{
		OFFSET -8.207787 -6.751648 -1.599560
		CHANNELS 6 Xposition Yposition Zposition Xrotation Yrotation Zrotation
		JOINT mixamorig:RightLeg
		{
			OFFSET -0.000002 -44.370117 0.345942
			CHANNELS 6 Xposition Yposition Zposition Xrotation Yrotation Zrotation
			JOINT mixamorig:RightFoot
			{
				OFFSET 0.000003 -44.423679 -3.043532
				CHANNELS 6 Xposition Yposition Zposition Xrotation Yrotation Zrotation
				JOINT mixamorig:RightToeBase
				{
					OFFSET -0.000002 -8.728671 10.710558
					CHANNELS 6 Xposition Yposition Zposition Xrotation Yrotation Zrotation
					JOINT mixamorig:RightToe_End
					{
						OFFSET -0.000001 -0.000679 9.278119
						CHANNELS 6 Xposition Yposition Zposition Xrotation Yrotation Zrotation
						End Site
						{
							OFFSET 0.000000 -0.067690 927.812134
						}
					}
				}
			}
		}
	}
	JOINT mixamorig:LeftUpLeg
	{
		OFFSET 8.207793 -6.751686 -1.599556
		CHANNELS 6 Xposition Yposition Zposition Xrotation Yrotation Zrotation
		JOINT mixamorig:LeftLeg
		{
			OFFSET -0.000004 -44.370014 0.346954
			CHANNELS 6 Xposition Yposition Zposition Xrotation Yrotation Zrotation
			JOINT mixamorig:LeftFoot
			{
				OFFSET -0.000001 -44.423672 -3.044401
				CHANNELS 6 Xposition Yposition Zposition Xrotation Yrotation Zrotation
				JOINT mixamorig:LeftToeBase
				{
					OFFSET -0.000002 -8.728669 10.710558
					CHANNELS 6 Xposition Yposition Zposition Xrotation Yrotation Zrotation
					JOINT mixamorig:LeftToe_End
					{
						OFFSET -0.000003 -0.000679 9.278133
						CHANNELS 6 Xposition Yposition Zposition Xrotation Yrotation Zrotation
						End Site
						{
							OFFSET 0.000000 -0.068021 927.813477
						}
					}
				}
			}
		}
	}
}
MOTION
Frames: 3
Frame Time: 0.033333
0.000006 104.270477 1.554256 0.000010 0.000003 -0.000113 -0.000005 10.181587 0.131522 0.000001 -0.000003 0.000084 -0.000000 9.893967 -1.470711 0.000001 0.000000 -0.000000 -0.000000 9.220802 -1.370642 0.000000 -0.000000 -0.000000 0.000001 16.740433 -2.049030 0.000000 -0.000000 -0.000000 0.000000 9.617859 1.685014 0.000000 0.000000 0.000000 0.000002 22.037384 7.501101 0.000000 -0.000000 0.000000 -4.569968 11.014880 -2.160881 0.000008 0.000001 -0.000038 -10.592867 -0.524780 -2.231874 77.350663 33.437959 -27.038492 -27.841511 -0.000002 0.000556 -48.607960 107.429341 63.192166 -28.328819 0.000006 0.000027 -0.000321 -0.000046 0.000006 -2.464452 -1.573728 2.682311 -51.163776 -174.110114 -19.856272 -3.215287 -1.872590 1.924658 155.000037 30.604695 -2.535050 -2.654950 -1.527866 1.513074 143.645572 27.431918 -39.423053 -2.018827 -1.151994 1.108082 -0.000001 0.000000 0.000005 -9.108393 -0.517566 2.260134 101.654259 17.437560 -21.376103 -3.700076 0.000304 0.001537 96.247010 14.366104 -15.977629 -2.850094 0.000367 -0.000269 95.906122 11.135177 -12.336604 -2.772170 -0.000015 -0.000019 0.000001 -0.000000 -0.000001 -9.532598 0.000267 0.000237 91.724898 18.321052 -19.020762 -3.700071 0.000307 0.003962 90.057342 13.377495 -13.294663 -2.950046 0.000340 -0.001842 92.131834 11.630112 -12.060539 -2.946624 0.000013 -0.000153 0.000001 -0.000001 -0.000000 -9.103726 -0.042790 -1.864887 86.007129 23.131441 -21.567077 -3.379350 0.000296 -0.000824 85.437552 13.572768 -12.558250 -2.889760 0.000340 0.000606 90.558732 8.157499 -8.283896 -2.638819 -0.000016 0.000942 0.000001 0.000001 -0.000002 -8.076775 -0.486417 -3.806082 71.783191 23.116584 -16.718522 -3.600054 0.000222 -0.003594 70.999830 12.827106 -8.896700 -2.100014 0.000293 -0.005560 73.765544 7.438929 -5.415340 -2.115775 -0.000053 -0.003678 -0.000001 -0.000000 -0.000003 4.570446 11.014691 -2.160851 -0.000018 0.000010 -0.000021 10.592411 -0.524470 -2.232380 73.581136 -16.898086 12.677582 27.841816 0.000061 -0.000203 107.213029 -72.471715 89.669817 28.328825 -0.000028 0.000025 0.000025 -0.000088 -0.000001 2.465832 -1.575964 2.681847 125.352659 -14.273468 -125.875482 3.217844 -1.871841 1.916395 152.322562 -26.440822 29.260401 2.656114 -1.528672 1.514472 127.926561 -31.316294 51.244703 2.020895 -1.154055 1.115155 0.000003 0.000008 0.000004 9.109350 -0.517897 2.259734 70.776278 -15.816065 11.261405 3.700058 0.000106 -0.000455 68.172132 -16.943852 11.523526 2.850056 0.000139 0.000214 65.740735 -14.196999 9.200552 2.774868 -0.000015 -0.000030 -0.000001 0.000002 -0.000002 9.533439 0.000168 -0.000079 71.388598 -14.981767 10.786530 3.700067 0.000144 -0.000372 73.577079 -15.658813 11.739455 2.950076 0.000105 -0.000193 71.789646 -18.501900 13.448442 2.952865 -0.000014 0.000066 -0.000001 -0.000002 -0.000003 9.104562 -0.042885 -1.865220 71.641800 -14.436964 10.448128 3.150071 0.000142 -0.000086 75.334856 -15.037683 11.637205 2.950026 0.000125 -0.000057 74.932851 -16.232870 12.476619 2.644341 0.000032 0.000057 -0.000001 -0.000001 -0.000000 8.077820 -0.486772 -3.806392 63.808775 -16.982487 11.000848 3.600003 0.000122 0.014581 62.344929 -14.665770 9.226684 2.100036 0.000124 0.007559 64.181792 -13.890004 9.053703 2.125507 0.000000 0.007514 -0.000002 0.000001 0.000002 -8.207786 -6.751667 -1.599560 -0.077001 -0.000003 0.000080 -0.000002 -44.370110 0.345938 0.153719 -0.000000 -0.000000 0.000000 -44.423679 -3.043532 -0.076700 0.000000 -0.000002 -0.000006 -8.728667 10.710559 -0.000009 -0.000000 -0.000000 -0.000001 -0.000679 9.278123 0.000000 -0.000000 -0.000000 8.207792 -6.751710 -1.599556 -0.074518 -0.000003 0.000081 -0.000002 -44.370014 0.346960 0.148822 0.000002 0.000000 -0.000001 -44.423664 -3.044403 -0.074314 0.000000 -0.000002 -0.000004 -8.728671 10.710558 0.000007 -0.000000 -0.000000 0.000000 -0.000680 9.278137 -0.000000 0.000000 -0.000001 
0.000006 104.270477 1.554256 0.000010 0.000003 -0.000113 -0.000005 10.181587 0.131522 0.000001 -0.000003 0.000084 -0.000000 9.893967 -1.470711 0.000001 0.000000 -0.000000 -0.000000 9.220802 -1.370642 0.000000 -0.000000 -0.000000 0.000001 16.740433 -2.049030 0.000000 -0.000000 -0.000000 0.000000 9.617859 1.685014 0.000000 0.000000 0.000000 0.000002 22.037384 7.501101 0.000000 -0.000000 0.000000 -4.569968 11.014880 -2.160881 0.000008 0.000001 -0.000038 -10.592862 -0.524793 -2.231862 77.290591 38.840349 -31.485751 -27.841516 -0.000003 0.000561 -46.233369 106.474514 59.486979 -28.328825 0.000020 0.000021 -0.000321 -0.000044 0.000006 -2.464437 -1.573747 2.682317 -50.112422 -168.754303 -16.005206 -3.215284 -1.872585 1.924647 151.916166 31.859151 7.992497 -2.654961 -1.527881 1.513068 144.118631 27.758541 -33.404772 -2.018834 -1.152003 1.108062 -0.000001 -0.000003 0.000002 -9.108364 -0.517553 2.260139 101.066111 15.766566 -19.148138 -3.700074 0.000314 0.001532 98.139382 13.718291 -15.767924 -2.850094 0.000369 -0.000256 95.983303 11.914380 -13.216293 -2.772176 -0.000015 -0.000013 -0.000001 -0.000001 -0.000001 -9.532589 0.000252 0.000225 90.504583 15.914416 -16.196754 -3.700076 0.000319 0.003965 91.283067 11.445386 -11.606772 -2.950066 0.000341 -0.001812 91.212354 11.793097 -12.036210 -2.946621 -0.000000 -0.000154 -0.000001 0.000001 0.000001 -9.103694 -0.042762 -1.864891 85.430961 20.085775 -18.530083 -3.379327 0.000299 -0.000830 88.848439 10.261463 -10.075457 -2.889781 0.000349 0.000635 92.378800 8.394912 -8.797915 -2.638802 -0.000002 0.000942 -0.000002 -0.000000 0.000000 -8.076775 -0.486440 -3.806076 70.159020 24.425308 -17.168860 -3.600076 0.000241 -0.003563 73.004320 12.625392 -9.079894 -2.100012 0.000295 -0.005562 75.103223 7.224041 -5.383186 -2.115768 -0.000044 -0.003679 -0.000001 -0.000002 -0.000003 4.570446 11.014691 -2.160851 -0.000018 0.000010 -0.000021 10.592415 -0.524468 -2.232365 73.703274 -18.473447 13.898651 27.841837 0.000053 -0.000191 108.843333 -73.955526 92.933002 28.328836 -0.000027 0.000023 0.000018 -0.000092 0.000001 2.465889 -1.576072 2.681926 129.783867 -4.481007 -160.834071 3.217885 -1.871881 1.916422 154.432148 -22.828888 47.853781 2.656082 -1.528708 1.514490 128.486336 -31.585691 59.019371 2.020888 -1.154068 1.115142 -0.000003 0.000003 0.000001 9.109374 -0.517898 2.259733 71.575431 -17.610642 12.734292 3.700037 0.000123 -0.000456 70.150079 -11.751403 8.277953 2.850034 0.000143 0.000211 69.106563 -9.725734 6.705218 2.774889 -0.000015 -0.000025 0.000001 -0.000003 -0.000001 9.533464 0.000167 -0.000085 72.550563 -17.858416 13.148739 3.700021 0.000141 -0.000388 75.102759 -11.732111 9.029920 2.950061 0.000143 -0.000204 75.346993 -11.665205 9.022121 2.952880 -0.000045 0.000067 0.000000 0.000001 0.000000 9.104589 -0.042885 -1.865206 72.856057 -17.860902 13.231873 3.150064 0.000162 -0.000098 76.754906 -13.846761 10.987325 2.950027 0.000134 -0.000091 78.137958 -11.850558 9.633178 2.644325 0.000015 0.000055 0.000000 0.000001 -0.000000 8.077842 -0.486770 -3.806389 64.897459 -20.579585 13.572972 3.600006 0.000117 0.014588 64.241556 -19.259610 12.513882 2.100029 0.000134 0.007563 67.226595 -14.526556 10.022696 2.125502 -0.000014 0.007512 0.000001 -0.000003 -0.000002 -8.207786 -6.751667 -1.599560 -0.077001 -0.000003 0.000080 -0.000002 -44.370110 0.345938 0.153719 -0.000000 -0.000000 0.000000 -44.423679 -3.043532 -0.076700 0.000000 -0.000002 -0.000006 -8.728667 10.710559 -0.000009 -0.000000 -0.000000 -0.000001 -0.000679 9.278123 0.000000 -0.000000 -0.000000 8.207792 -6.751710 -1.599556 -0.074518 -0.000003 0.000081 -0.000002 -44.370014 0.346960 0.148822 0.000002 0.000000 -0.000001 -44.423664 -3.044403 -0.074314 0.000000 -0.000002 -0.000004 -8.728671 10.710558 0.000007 -0.000000 -0.000000 0.000000 -0.000680 9.278137 -0.000000 0.000000 -0.000001 
0.000006 104.270477 1.554256 0.000010 0.000003 -0.000113 -0.000005 10.181587 0.131522 0.000001 -0.000003 0.000084 -0.000000 9.893967 -1.470711 0.000001 0.000000 -0.000000 -0.000000 9.220802 -1.370642 0.000000 -0.000000 -0.000000 0.000001 16.740433 -2.049030 0.000000 -0.000000 -0.000000 0.000000 9.617859 1.685014 0.000000 0.000000 0.000000 0.000002 22.037384 7.501101 0.000000 -0.000000 0.000000 -4.569968 11.014880 -2.160881 0.000008 0.000001 -0.000038 -10.592852 -0.524803 -2.231830 77.557351 42.301800 -34.533600 -27.841526 0.000004 0.000577 -45.792296 104.241220 56.996686 -28.328825 0.000021 0.000025 -0.000322 -0.000045 0.000008 -2.464422 -1.573733 2.682311 -51.179652 -171.011380 -19.412794 -3.215276 -1.872561 1.924650 152.671612 31.758348 6.506229 -2.654953 -1.527877 1.513068 144.549725 27.606622 -34.486612 -2.018819 -1.151996 1.108069 -0.000004 0.000000 0.000005 -9.108366 -0.517558 2.260126 101.343540 16.075392 -19.614707 -3.700060 0.000311 0.001530 98.050972 14.207958 -16.304631 -2.850089 0.000359 -0.000258 95.601427 12.190197 -13.432290 -2.772163 -0.000001 -0.000024 0.000001 0.000001 -0.000000 -9.532583 0.000268 0.000230 90.696238 16.419592 -16.762112 -3.700087 0.000326 0.003970 91.449929 11.851483 -12.056249 -2.950045 0.000321 -0.001816 91.347278 11.980105 -12.255723 -2.946632 0.000015 -0.000155 0.000000 0.000003 -0.000000 -9.103705 -0.042774 -1.864897 85.392828 20.700809 -19.087824 -3.379354 0.000310 -0.000827 89.317912 10.501194 -10.394915 -2.889758 0.000339 0.000607 92.763395 8.410772 -8.873638 -2.638819 -0.000001 0.000939 -0.000001 0.000001 -0.000002 -8.076764 -0.486429 -3.806075 70.059334 24.728142 -17.354543 -3.600057 0.000238 -0.003575 73.433836 12.891270 -9.349563 -2.100028 0.000293 -0.005544 75.990697 7.335031 -5.556504 -2.115769 -0.000052 -0.003679 0.000001 0.000002 -0.000006 4.570446 11.014691 -2.160851 -0.000018 0.000010 -0.000021 10.592451 -0.524461 -2.232400 73.905072 -30.632299 23.282733 27.841829 0.000028 -0.000162 109.678215 -75.911672 95.834466 28.328827 -0.000027 0.000027 0.000020 -0.000087 -0.000001 2.466105 -1.576170 2.681918 149.739767 14.624005 -214.510670 3.217867 -1.871881 1.916442 155.451772 -21.672101 52.037528 2.656094 -1.528708 1.514505 129.175966 -31.400845 60.364433 2.020883 -1.154048 1.115143 0.000004 -0.000003 0.000003 9.109387 -0.517886 2.259741 75.010695 -17.511613 13.472982 3.700055 0.000119 -0.000466 73.515901 -11.583934 8.678252 2.850032 0.000168 0.000204 71.781286 -9.153133 6.629288 2.774889 -0.000032 -0.000029 -0.000000 0.000001 -0.000001 9.533463 0.000172 -0.000076 74.899322 -17.484489 13.427932 3.700037 0.000146 -0.000382 76.618672 -10.801644 8.540889 2.950065 0.000153 -0.000220 75.879761 -10.405100 8.122788 2.952862 -0.000031 0.000062 0.000001 0.000000 -0.000002 9.104600 -0.042879 -1.865221 74.481697 -17.081972 13.027297 3.150055 0.000165 -0.000093 78.610061 -13.046701 10.697257 2.950034 0.000161 -0.000077 79.026375 -10.996245 9.079210 2.644324 0.000031 0.000056 -0.000002 -0.000001 0.000000 8.077851 -0.486764 -3.806397 66.578703 -19.613054 13.360974 3.600011 0.000125 0.014595 66.979574 -18.403467 12.601591 2.100042 0.000124 0.007546 69.472613 -13.530630 9.750779 2.125505 -0.000016 0.007515 -0.000001 -0.000003 -0.000001 -8.207786 -6.751667 -1.599560 -0.077001 -0.000003 0.000080 -0.000002 -44.370110 0.345938 0.153719 -0.000000 -0.000000 0.000000 -44.423679 -3.043532 -0.076700 0.000000 -0.000002 -0.000006 -8.728667 10.710559 -0.000009 -0.000000 -0.000000 -0.000001 -0.000679 9.278123 0.000000 -0.000000 -0.000000 8.207792 -6.751710 -1.599556 -0.074518 -0.000003 0.000081 -0.000002 -44.370014 0.346960 0.148822 0.000002 0.000000 -0.000001 -44.423664 -3.044403 -0.074314 0.000000 -0.000002 -0.000004 -8.728671 10.710558 0.000007 -0.000000 -0.000000 0.000000 -0.000680 9.278137 -0.000000 0.000000 -0.000001 
